<svg width="37" height="36" viewBox="0 0 37 36" fill="none" xmlns="http://www.w3.org/2000/svg">
<g id="Group">
<path id="Vector" d="M2.22982 14.9698L2.51596 15.0554V12.4138H1.27458V14.9704C1.42417 14.9276 1.57872 14.8972 1.74196 14.8972C1.90769 14.8972 2.07155 14.922 2.22982 14.9698ZM3.75734 14.2759V15.4279L4.99872 15.8003V14.2759H3.75734ZM14.9298 14.8966H16.1711V16.1379H14.9298V14.8966ZM17.4125 13.6552H18.6539V16.1379H17.4125V13.6552ZM19.8953 14.8966H21.1367V16.1379H19.8953V14.8966ZM34.7918 14.9717V12.4138H33.5504V15.0554L33.8409 14.9686C34.0004 14.9214 34.1612 14.8984 34.322 14.8984C34.4858 14.8978 34.6416 14.9282 34.7918 14.9717ZM31.0677 14.2759V15.8003L32.3091 15.4279V14.2759H31.0677ZM18.0332 11.4201L21.4259 7.1789C22.0411 6.40812 22.3768 5.45146 22.378 4.46524V4.34483C22.378 1.94897 20.4291 0 18.0332 0C15.6373 0 13.6884 1.94897 13.6884 4.34483V4.46524C13.6884 5.44779 14.0267 6.41234 14.6405 7.17952L18.0332 11.4201ZM18.0332 1.86207C18.6917 1.86207 19.3232 2.12364 19.7888 2.58925C20.2544 3.05486 20.516 3.68636 20.516 4.34483C20.516 5.0033 20.2544 5.6348 19.7888 6.1004C19.3232 6.56601 18.6917 6.82759 18.0332 6.82759C17.3747 6.82759 16.7432 6.56601 16.2776 6.1004C15.812 5.6348 15.5504 5.0033 15.5504 4.34483C15.5504 3.68636 15.812 3.05486 16.2776 2.58925C16.7432 2.12364 17.3747 1.86207 18.0332 1.86207ZM31.6884 0C29.2925 0 27.3435 1.94897 27.3435 4.34483V4.46524C27.3435 5.44779 27.6818 6.41234 28.2957 7.17952L31.6884 11.4201L35.0811 7.1789C35.6963 6.40812 36.032 5.45146 36.0332 4.46524V4.34483C36.0332 1.94897 34.0842 0 31.6884 0ZM31.6884 6.82759C31.0299 6.82759 30.3984 6.56601 29.9328 6.1004C29.4672 5.6348 29.2056 5.0033 29.2056 4.34483C29.2056 3.68636 29.4672 3.05486 29.9328 2.58925C30.3984 2.12364 31.0299 1.86207 31.6884 1.86207C32.3468 1.86207 32.9783 2.12364 33.444 2.58925C33.9096 3.05486 34.1711 3.68636 34.1711 4.34483C34.1711 5.0033 33.9096 5.6348 33.444 6.1004C32.9783 6.56601 32.3468 6.82759 31.6884 6.82759ZM4.37803 11.4201L7.77072 7.1789C8.38598 6.40812 8.72164 5.45146 8.72286 4.46524V4.34483C8.72286 1.94897 6.77389 0 4.37803 0C1.98217 0 0.0332031 1.94897 0.0332031 4.34483V4.46524C0.0332031 5.44779 0.371479 6.41234 0.985341 7.17952L4.37803 11.4201ZM4.37803 1.86207C5.0365 1.86207 5.668 2.12364 6.13361 2.58925C6.59921 3.05486 6.86079 3.68636 6.86079 4.34483C6.86079 5.0033 6.59921 5.6348 6.13361 6.1004C5.668 6.56601 5.0365 6.82759 4.37803 6.82759C3.71956 6.82759 3.08806 6.56601 2.62246 6.1004C2.15685 5.6348 1.89527 5.0033 1.89527 4.34483C1.89527 3.68636 2.15685 3.05486 2.62246 2.58925C3.08806 2.12364 3.71956 1.86207 4.37803 1.86207ZM22.378 19.8621V17.3793H13.6884V23.5862H22.378V19.8621ZM16.1711 22.3448H14.9298V21.1034H16.1711V22.3448ZM16.1711 19.8621H14.9298V18.6207H16.1711V19.8621ZM18.6539 22.3448H17.4125V21.1034H18.6539V22.3448ZM18.6539 19.8621H17.4125V18.6207H18.6539V19.8621ZM21.1367 22.3448H19.8953V21.1034H21.1367V22.3448ZM21.1367 19.8621H19.8953V18.6207H21.1367V19.8621ZM12.447 19.8621H6.2401V23.5862H12.447V19.8621ZM8.72286 22.3448H7.48148V21.1034H8.72286V22.3448ZM11.2056 22.3448H9.96424V21.1034H11.2056V22.3448ZM29.8263 19.8621H23.6194V23.5862H29.8263V19.8621ZM26.1022 22.3448H24.8608V21.1034H26.1022V22.3448ZM28.5849 22.3448H27.3435V21.1034H28.5849V22.3448Z" fill="#828282"/>
<path id="Vector_2" d="M28.5846 18.1848V18.6206H29.826C30.5106 18.6206 31.0674 19.1773 31.0674 19.8619V23.5861H34.7915V16.5996C34.7915 16.3004 34.4855 16.072 34.1969 16.157L28.913 17.7423C28.8178 17.7706 28.7343 17.8291 28.6751 17.9088C28.6159 17.9886 28.5841 18.0855 28.5846 18.1848ZM32.3088 18.6206H33.5502V19.8619H32.3088V18.6206ZM32.3088 21.1033H33.5502V22.3447H32.3088V21.1033ZM35.668 24.8274H22.3777V25.4481C22.3777 25.7901 22.6564 26.0688 22.9984 26.0688H29.2053C30.232 26.0688 31.0674 26.9043 31.0674 27.9309C31.0674 28.9575 30.232 29.793 29.2053 29.793H25.4812C25.1392 29.793 24.8605 30.0717 24.8605 30.4137C24.8605 31.4403 24.0251 32.2757 22.9984 32.2757H20.5157C20.1737 32.2757 19.895 32.5544 19.895 32.8964C19.895 33.2384 20.1737 33.5171 20.5157 33.5171C21.5423 33.5171 22.3777 34.3526 22.3777 35.3792V35.5263C25.2221 34.9088 27.9022 33.6923 30.2395 31.9578C32.5768 30.2233 34.5178 28.0107 35.933 25.4674L35.987 25.3699C36.0177 25.3143 36.0335 25.2517 36.0326 25.1882C36.0318 25.1247 36.0144 25.0625 35.9822 25.0077C35.95 24.9529 35.9041 24.9075 35.849 24.8759C35.7939 24.8443 35.7315 24.8276 35.668 24.8274ZM13.0674 34.7585C12.0408 34.7585 11.2053 33.923 11.2053 32.8964C11.2053 31.8698 12.0408 31.0343 13.0674 31.0343H14.3088C14.6508 31.0343 14.9295 30.7557 14.9295 30.4137C14.9295 30.0717 14.6508 29.793 14.3088 29.793H6.86051C5.83389 29.793 4.99844 28.9575 4.99844 27.9309C4.99844 26.9043 5.83389 26.0688 6.86051 26.0688H10.5846C10.9266 26.0688 11.2053 25.7901 11.2053 25.4481V24.8274H0.397886C0.334363 24.8276 0.271977 24.8443 0.216876 24.8759C0.161775 24.9075 0.115862 24.9529 0.0836595 25.0077C0.0514575 25.0625 0.0340785 25.1247 0.0332353 25.1882C0.0323922 25.2517 0.0481139 25.3143 0.0788511 25.3699L0.132851 25.4674C1.54807 28.0107 3.489 30.2233 5.82634 31.9578C8.16367 33.6923 10.8438 34.9088 13.6881 35.5263V35.3792C13.6881 35.0372 13.4094 34.7585 13.0674 34.7585ZM1.2743 23.5861H4.99844V19.8619C4.99844 19.1773 5.5552 18.6206 6.23982 18.6206H7.4812V18.1848C7.48162 18.0853 7.44971 17.9884 7.39027 17.9085C7.33083 17.8287 7.24707 17.7704 7.15161 17.7423L1.86892 16.1577C1.57968 16.0695 1.2743 16.3004 1.2743 16.5996V23.5861ZM2.51568 18.6206H3.75706V19.8619H2.51568V18.6206ZM2.51568 21.1033H3.75706V22.3447H2.51568V21.1033Z" fill="#828282"/>
<path id="Vector_3" d="M20.5161 34.7587C19.4895 34.7587 18.654 33.9232 18.654 32.8966C18.654 31.87 19.4895 31.0345 20.5161 31.0345H22.9989C23.3409 31.0345 23.6195 30.7558 23.6195 30.4138C23.6195 29.3872 24.455 28.5518 25.4816 28.5518H29.2058C29.5478 28.5518 29.8264 28.2731 29.8264 27.9311C29.8264 27.5891 29.5478 27.3104 29.2058 27.3104H22.9989C21.9722 27.3104 21.1368 26.4749 21.1368 25.4483V24.8276H12.4471V25.4483C12.4471 26.4749 11.6117 27.3104 10.5851 27.3104H6.86092C6.51892 27.3104 6.24023 27.5891 6.24023 27.9311C6.24023 28.2731 6.51892 28.5518 6.86092 28.5518H14.3092C15.3358 28.5518 16.1713 29.3872 16.1713 30.4138C16.1713 31.4405 15.3358 32.2759 14.3092 32.2759H13.0678C12.7258 32.2759 12.4471 32.5546 12.4471 32.8966C12.4471 33.2386 12.7258 33.5173 13.0678 33.5173C14.0944 33.5173 14.9299 34.3527 14.9299 35.3794V35.7549C15.9484 35.9113 16.9844 36 18.0333 36C19.0823 36 20.1182 35.9113 21.1368 35.7549V35.3794C21.1368 35.0374 20.8581 34.7587 20.5161 34.7587Z" fill="#828282"/>
</g>
</svg>
