<svg width="62" height="80" viewBox="0 0 62 80" fill="none" xmlns="http://www.w3.org/2000/svg">
<g id="Group">
<path id="Vector" d="M23.1237 7.86528C23.1254 6.30837 23.5886 4.7869 24.4548 3.49318C25.3209 2.19947 26.5512 1.19159 27.9901 0.596938C29.429 0.00228837 31.0118 -0.152436 32.5386 0.152323C34.0654 0.457081 35.4676 1.20764 36.5679 2.30913C37.6682 3.41062 38.4173 4.81359 38.7204 6.34071C39.0235 7.86783 38.8671 9.45053 38.2709 10.8888C37.6747 12.327 36.6656 13.5562 35.3709 14.421C34.0763 15.2858 32.5543 15.7474 30.9974 15.7474C28.9084 15.7452 26.9057 14.9137 25.4293 13.4358C23.953 11.9579 23.1237 9.95428 23.1237 7.86528Z" fill="url(#paint0_linear_2912_23022)"/>
<path id="Vector_2" d="M61.0625 65.373C61.0625 74.9427 45.9383 80.0004 30.9993 80.0004C16.0603 80.0004 0.936115 74.9418 0.936115 65.373C0.936115 58.7052 8.24559 54.2538 17.7134 52.1553L18.6902 59.4648C12.0645 61.0572 8.2877 63.6795 8.2877 65.3654C8.2877 67.8942 16.9126 72.6412 30.9993 72.6412C45.0861 72.6412 53.7109 67.9448 53.7109 65.3738C53.7109 63.6879 49.9341 61.0488 43.2991 59.4723L44.2852 52.1797C53.7614 54.2546 61.0625 58.7069 61.0625 65.3747V65.373Z" fill="url(#paint1_linear_2912_23022)"/>
<path id="Vector_3" d="M43.6445 27.4619L43.4508 37.376C43.439 38.0839 43.242 38.7763 42.8794 39.3844C42.5168 39.9925 42.0014 40.4951 41.3843 40.8421L39.0407 42.1659L36.2163 63.2918C36.1313 64.0318 35.7765 64.7145 35.2196 65.2092C34.6628 65.7039 33.9431 65.9759 33.1982 65.9731H28.831C28.0867 65.9741 27.368 65.7014 26.8115 65.2071C26.2551 64.7127 25.8997 64.0311 25.8129 63.2918L22.9893 42.1659L20.6449 40.8421C20.0283 40.4949 19.5132 39.9924 19.151 39.3845C18.7888 38.7766 18.5919 38.0844 18.5801 37.3769L18.3527 27.4627C18.2592 21.8442 22.7384 17.2143 28.3569 17.1208C28.4195 17.1197 28.4821 17.1191 28.5447 17.1192H33.4508C39.0711 17.1091 43.6344 21.6564 43.6445 27.2758L43.6437 27.4627L43.6445 27.4619Z" fill="url(#paint2_linear_2912_23022)"/>
</g>
<defs>
<linearGradient id="paint0_linear_2912_23022" x1="38.8711" y1="42.6997" x2="27.4422" y2="44.1297" gradientUnits="userSpaceOnUse">
<stop stop-color="#01BAEF"/>
</linearGradient>
<linearGradient id="paint1_linear_2912_23022" x1="61.0625" y1="127.658" x2="19.7569" y2="138.818" gradientUnits="userSpaceOnUse">
<stop stop-color="#01BAEF"/>
</linearGradient>
<linearGradient id="paint2_linear_2912_23022" x1="43.6445" y1="149.589" x2="25.0781" y2="150.791" gradientUnits="userSpaceOnUse">
<stop stop-color="#01BAEF"/>
</linearGradient>
</defs>
</svg>
