<svg width="67" height="80" viewBox="0 0 67 80" fill="none" xmlns="http://www.w3.org/2000/svg">
<g id="Group">
<path id="Vector" d="M65.9744 67.7419C65.9246 67.1729 65.8584 66.6055 65.7757 66.0403C65.7756 66.0395 65.4453 64.2059 65.3816 63.9262C64.6469 60.7029 62.6443 58.3394 59.9388 56.506C59.4328 56.1632 58.9078 55.8657 58.376 55.5863C57.6751 55.2178 47.0825 51.7369 46.8068 51.6504C46.8719 52.0125 46.9164 52.4132 46.9311 52.8483C48.406 53.8841 52.7535 57.6222 50.7793 64.6172C50.7793 64.6172 47.6583 60.8968 44.4743 60.4186C41.4416 65.705 36.2791 72.3965 33.4986 74.1529C30.7182 72.3965 25.5558 65.7049 22.5232 60.4184C19.3389 60.8968 16.2181 64.617 16.2181 64.617C14.2439 57.6223 18.5913 53.8841 20.0663 52.8483C20.081 52.4132 20.1255 52.0125 20.1905 51.6504C19.9148 51.7369 9.32212 55.2179 8.62133 55.5861C8.08976 55.8657 7.56457 56.163 7.05849 56.506C4.35302 58.3392 2.35037 60.7027 1.61578 63.9261C1.55196 64.2063 1.22169 66.0398 1.22169 66.0402C1.13901 66.6054 1.07276 67.1729 1.02302 67.742C1.0209 67.7657 0.902243 70.7269 0.902344 70.7439C0.902344 70.7439 0.932892 72.1314 0.950089 72.4627C1.04517 74.3032 1.43128 76.0149 2.77461 77.4412C4.48644 79.258 6.56577 80.0018 9.0043 80.0005C17.169 79.9968 25.3339 79.9957 33.4986 79.9955C41.6637 79.9957 49.8284 79.9968 57.993 80.0005C60.4314 80.0019 62.5109 79.258 64.2227 77.4412C65.5659 76.0149 65.9521 74.3034 66.0471 72.4627C66.0644 72.1314 66.095 70.7439 66.095 70.7439C66.0951 70.7269 65.9766 67.7656 65.9744 67.7419Z" fill="url(#paint0_linear_3275_34676)"/>
<path id="Vector_2" d="M14.2863 34.4509C14.5399 35.3671 14.7021 36.2291 14.6959 37.0476C14.6946 37.3168 14.6727 37.5856 14.6306 37.8515C14.4014 38.6261 12.7694 41.2366 12.5088 41.6752C15.3845 44.7755 19.1931 45.4948 22.9492 46.2862C24.0598 46.5201 25.192 46.6606 26.3952 46.8162C26.7833 46.8867 27.174 46.9593 27.5673 47.0341L25.6589 52.6126C25.6589 52.6126 25.6046 60.7526 33.4737 65.7059H33.523C41.3921 60.7523 41.3379 52.6126 41.3379 52.6126L39.4295 47.0343C39.8228 46.9595 40.2135 46.8869 40.6016 46.8164C41.8049 46.6608 42.937 46.5201 44.0476 46.2866C47.8038 45.495 51.6123 44.7757 54.4881 41.6756C54.2276 41.2368 52.5954 38.6263 52.3662 37.8517C52.324 37.5858 52.3022 37.317 52.3009 37.0478C52.2946 36.2293 52.4569 35.3673 52.7104 34.4511C52.9515 33.5803 53.229 32.7136 53.4937 31.8429C54.7651 29.0096 55.473 25.8642 55.473 22.5517C55.473 10.2345 45.683 0.225675 33.5228 0.00171962V0C33.5145 0.000101154 33.5064 0.000606926 33.4981 0.00070808C33.4898 0.000606926 33.4818 0.000202309 33.4735 0V0.00151731C21.3135 0.225473 11.5234 10.2343 11.5234 22.5515C11.5234 25.8638 12.2314 29.0093 13.5029 31.8427C13.7676 32.7134 14.0453 33.5799 14.2863 34.4509Z" fill="url(#paint1_linear_3275_34676)"/>
</g>
<defs>
<linearGradient id="paint0_linear_3275_34676" x1="0.902345" y1="128.523" x2="45.2834" y2="141.293" gradientUnits="userSpaceOnUse">
<stop stop-color="#01BAEF"/>
</linearGradient>
<linearGradient id="paint1_linear_3275_34676" x1="11.5234" y1="178.164" x2="43.6946" y2="180.857" gradientUnits="userSpaceOnUse">
<stop stop-color="#01BAEF"/>
</linearGradient>
</defs>
</svg>
