<svg width="87" height="80" viewBox="0 0 87 80" fill="none" xmlns="http://www.w3.org/2000/svg">
<g id="Group">
<path id="Vector" d="M49.4693 52.6096L46.365 49.5053V79.9996H60.6507V49.5039L57.5464 52.6096C56.475 53.68 55.0224 54.2812 53.5079 54.2812C51.9933 54.2812 50.5408 53.68 49.4693 52.6096ZM40.6507 44.3839C40.2721 44.3836 39.9088 44.5336 39.6407 44.801L29.2221 54.7139V79.9996H43.5079V46.6482L41.6607 44.801C41.3926 44.5336 41.0294 44.3836 40.6507 44.3839ZM3.50781 79.4282C3.50781 79.7425 3.76496 79.9996 4.07924 79.9996H26.365V57.4282L3.68496 79.0153C3.62907 79.0686 3.58456 79.1327 3.55411 79.2036C3.52366 79.2746 3.50791 79.351 3.50781 79.4282ZM63.5079 46.6439V79.9996H76.365C76.7439 79.9996 77.1073 79.8491 77.3752 79.5812C77.6431 79.3133 77.7936 78.9499 77.7936 78.5711V32.3496L63.5079 46.6439ZM24.9364 22.8567C24.9327 21.9735 24.6563 21.113 24.1448 20.3929C23.6334 19.6728 22.912 19.1283 22.0793 18.8339V26.8796C22.912 26.5852 23.6334 26.0407 24.1448 25.3206C24.6563 24.6005 24.9327 23.7399 24.9364 22.8567ZM19.2221 7.40527C18.387 7.6962 17.6632 8.23978 17.151 8.96063C16.6388 9.68147 16.3636 10.5438 16.3636 11.4281C16.3636 12.3124 16.6388 13.1748 17.151 13.8956C17.6632 14.6165 18.387 15.1601 19.2221 15.451V7.40527Z" fill="url(#paint0_linear_2912_35142)"/>
<path id="Vector_2" d="M20.6504 34.2857C30.1175 34.2857 37.7933 26.61 37.7933 17.1429C37.7933 7.67572 30.1175 0 20.6504 0C11.1832 0 3.50751 7.67572 3.50751 17.1429C3.51751 26.6057 11.1875 34.2757 20.6504 34.2857ZM13.5075 11.4286C13.5096 9.78257 14.0791 8.18761 15.12 6.91251C16.1609 5.63741 17.6095 4.76014 19.2218 4.42858V4.28572C19.2218 3.90684 19.3723 3.54347 19.6402 3.27556C19.9081 3.00766 20.2715 2.85715 20.6504 2.85715C21.0293 2.85715 21.3926 3.00766 21.6605 3.27556C21.9284 3.54347 22.079 3.90684 22.079 4.28572V4.42858C23.6912 4.76014 25.1399 5.63741 26.1808 6.91251C27.2217 8.18761 27.7912 9.78257 27.7932 11.4286C27.7932 11.8075 27.6427 12.1708 27.3748 12.4387C27.1069 12.7066 26.7436 12.8572 26.3647 12.8572C25.9858 12.8572 25.6224 12.7066 25.3545 12.4387C25.0866 12.1708 24.9361 11.8075 24.9361 11.4286C24.9324 10.5454 24.656 9.68482 24.1445 8.96472C23.6331 8.24462 22.9117 7.70013 22.079 7.40572V15.8572C23.6937 16.185 25.1454 17.0611 26.1881 18.3368C27.2308 19.6125 27.8004 21.2095 27.8004 22.8572C27.8004 24.5048 27.2308 26.1018 26.1881 27.3775C25.1454 28.6533 23.6937 29.5293 22.079 29.8572V30C22.079 30.3789 21.9284 30.7423 21.6605 31.0102C21.3926 31.2781 21.0293 31.4286 20.6504 31.4286C20.2715 31.4286 19.9081 31.2781 19.6402 31.0102C19.3723 30.7423 19.2218 30.3789 19.2218 30V29.8572C17.6095 29.5256 16.1609 28.6483 15.12 27.3732C14.0791 26.0981 13.5096 24.5032 13.5075 22.8572C13.5075 22.4783 13.658 22.1149 13.9259 21.847C14.1938 21.5791 14.5572 21.4286 14.9361 21.4286C15.315 21.4286 15.6783 21.5791 15.9462 21.847C16.2142 22.1149 16.3647 22.4783 16.3647 22.8572C16.3683 23.7404 16.6448 24.6009 17.1562 25.321C17.6677 26.0411 18.3891 26.5856 19.2218 26.88V18.4286C17.6095 18.097 16.1609 17.2198 15.12 15.9447C14.0791 14.6696 13.5096 13.0746 13.5075 11.4286ZM85.4819 11.5386C85.309 11.4662 85.1235 11.4288 84.9361 11.4286H70.6504C70.2715 11.4286 69.9082 11.5791 69.6403 11.847C69.3724 12.1149 69.2219 12.4783 69.2219 12.8572C69.2219 13.236 69.3724 13.5994 69.6403 13.8673C69.9082 14.1352 70.2715 14.2857 70.6504 14.2857H81.4876L54.5176 41.2558C54.2497 41.5236 53.8864 41.674 53.5076 41.674C53.1287 41.674 52.7654 41.5236 52.4976 41.2558L43.6804 32.4386C42.8767 31.6352 41.7868 31.1838 40.6504 31.1838C39.514 31.1838 38.4241 31.6352 37.6204 32.4386L1.06894 68.9901C0.932496 69.1218 0.823664 69.2795 0.748794 69.4538C0.673924 69.6281 0.634515 69.8155 0.632866 70.0052C0.631218 70.1949 0.667363 70.383 0.739193 70.5586C0.811023 70.7341 0.917099 70.8936 1.05123 71.0278C1.18536 71.1619 1.34487 71.268 1.52043 71.3398C1.696 71.4116 1.88411 71.4478 2.0738 71.4461C2.26348 71.4445 2.45094 71.4051 2.62523 71.3302C2.79952 71.2553 2.95716 71.1465 3.08894 71.0101L39.6404 34.4586C39.9083 34.1908 40.2716 34.0403 40.6504 34.0403C41.0292 34.0403 41.3925 34.1908 41.6604 34.4586L50.4776 43.2758C51.2812 44.0792 52.3711 44.5306 53.5076 44.5306C54.644 44.5306 55.7339 44.0792 56.5376 43.2758L83.5076 16.3057V27.1429C83.5076 27.5218 83.6581 27.8851 83.926 28.153C84.1939 28.4209 84.5573 28.5715 84.9361 28.5715C85.315 28.5715 85.6784 28.4209 85.9463 28.153C86.2142 27.8851 86.3647 27.5218 86.3647 27.1429V12.8572C86.3644 12.5747 86.2803 12.2987 86.1232 12.064C85.9661 11.8293 85.7429 11.6465 85.4819 11.5386Z" fill="url(#paint1_linear_2912_35142)"/>
</g>
<defs>
<linearGradient id="paint0_linear_2912_35142" x1="3.50781" y1="204.248" x2="57.3827" y2="211.146" gradientUnits="userSpaceOnUse">
<stop stop-color="#01BAEF"/>
</linearGradient>
<linearGradient id="paint1_linear_2912_35142" x1="0.632815" y1="193.729" x2="62.435" y2="203.008" gradientUnits="userSpaceOnUse">
<stop stop-color="#01BAEF"/>
</linearGradient>
</defs>
</svg>
