<svg width="81" height="80" viewBox="0 0 81 80" fill="none" xmlns="http://www.w3.org/2000/svg">
<path d="M14.9841 30.7934L15.6724 31.1914V35.5597L12.536 36.3436L19.8103 40.5872L19.7578 43.1378L19.646 43.5284L23.9483 42.5707V41.549C23.9483 39.6948 24.6972 37.9971 25.9236 36.7422L21.1909 35.5597L21.1857 31.1948L21.8753 30.796C24.0048 29.5629 25.3276 27.2759 25.3276 24.8276V22.4166C25.3276 18.5352 22.3293 15.2869 18.6431 15.1764C16.7755 15.1038 14.9788 15.8095 13.6284 17.1188C12.2781 18.4288 11.5345 20.1879 11.5345 22.069V24.8276C11.5345 27.2759 12.8559 29.5629 14.9841 30.7934ZM25.2629 15.3907C28.5043 10.1724 34.2655 6.89655 40.5 6.89655C46.69 6.89655 52.435 10.1421 55.6859 15.3091C55.741 15.254 55.7897 15.1933 55.8462 15.1381C56.7055 14.3036 57.6928 13.6605 58.7578 13.2024L60.3222 9.53931L55.9209 5.13672L52.0422 7.66086L51.3002 7.20569C49.4405 6.06603 47.4309 5.23155 45.3276 4.72862L44.4776 4.52379L43.5193 0H37.4793L36.5224 4.52379L35.6738 4.72655C33.5703 5.23034 31.5607 6.06483 29.7014 7.20431L28.9591 7.65948L25.0803 5.13534L20.6738 9.54207L22.2214 13.2314C23.3636 13.746 24.3955 14.4828 25.2629 15.3907ZM0.5 31.7241V56.9362L6.42 58.9103L11.4253 38.8895L0.5 31.7241Z" fill="url(#paint0_linear_2912_38445)"/>
<path d="M57.0514 32.7413C54.4807 30.9458 52.9135 27.9844 52.9135 24.8272V22.0686C52.9135 20.5486 53.2704 19.0905 53.9271 17.7737C51.3173 12.8229 46.1261 9.65479 40.4997 9.65479C34.8195 9.65479 29.6059 12.866 27.0157 17.8848C27.6952 19.252 28.0859 20.7931 28.0859 22.4162V24.8272C28.0859 27.9846 26.5173 30.9486 23.9466 32.7427V33.4034L29.4652 34.7848L34.9825 33.4034V32.7413C32.4118 30.9458 30.8445 27.9844 30.8445 24.8272V22.0686C30.8445 19.4339 31.8859 16.9737 33.7769 15.1391C35.6666 13.3044 38.1559 12.342 40.7959 12.4174C45.9564 12.5738 50.1549 17.0579 50.1549 22.4162V24.8272C50.1549 27.9846 48.5862 30.9486 46.0156 32.7427V33.4034L51.5342 34.7848L57.0514 33.4034V32.7413ZM17.0514 42.171L13.9056 40.3365L9.04297 59.7848L11.7578 60.6893H11.8737L17.0514 42.565V42.171Z" fill="url(#paint1_linear_2912_38445)"/>
<path d="M29.84 37.5337C28.9444 37.7572 28.1493 38.274 27.5814 39.0017C27.0135 39.7294 26.7054 40.6262 26.7062 41.5492V41.9573L27.4969 41.7822C30.4096 41.137 33.4896 41.273 36.3351 42.1849L42.5789 44.1804C43.27 44.2067 43.9582 44.2829 44.6251 44.4736L53.1062 46.8967H53.9514L54.2922 46.7173V41.5491C54.2922 39.6473 53.0026 37.9958 51.1584 37.5337L43.2591 35.5598L43.2538 31.1949L43.9434 30.7961C46.0731 29.563 47.3958 27.276 47.3958 24.8277V22.4167C47.3958 18.5353 44.3976 15.287 40.7113 15.1765C38.85 15.1039 37.047 15.8096 35.6967 17.1189C34.3462 18.4289 33.6027 20.188 33.6027 22.0691V24.8277C33.6027 27.276 34.9241 29.563 37.0524 30.7935L37.7407 31.1915V35.5598L29.84 37.5337ZM55.6717 22.0691V24.8277C55.6717 27.276 56.9931 29.563 59.1213 30.7935L59.8096 31.1915V35.5598L55.0757 36.7425C56.3007 37.9972 57.051 39.6937 57.051 41.5491V45.2648L72.2195 37.2811L65.3281 35.5598L65.3229 31.1949L66.0126 30.7961C68.142 29.563 69.4648 27.276 69.4648 24.8277V22.4167C69.4648 18.5353 66.4665 15.287 62.7803 15.1765C60.9088 15.1039 59.1172 15.8096 57.7657 17.1189C56.4151 18.4289 55.6717 20.188 55.6717 22.0691ZM43.5251 54.5118C42.6343 53.7104 41.2496 53.5737 40.2177 54.1932L35.081 57.2732C34.3639 57.7041 33.543 57.9316 32.7063 57.9311C30.1584 57.9311 28.0855 55.8582 28.0855 53.3104V53.0375C28.0855 51.2772 29.0634 49.6937 30.64 48.9049L37.5286 45.4608L35.4965 44.8108C33.1131 44.0484 30.5377 43.9299 28.0962 44.4761L18.7846 46.5465L15.0703 59.5461L19.3079 62.0886C19.4291 61.9256 19.5489 61.7613 19.6938 61.6165L22.1184 59.192C22.917 58.3904 24.0263 57.9311 25.1598 57.9311C27.4813 57.9311 29.3684 59.7818 29.4494 62.0846C31.6994 62.1639 33.5077 63.9725 33.5874 66.2225C35.8374 66.3018 37.6457 68.1104 37.7253 70.3604C39.357 70.4184 40.7505 71.3848 41.4288 72.7708L44.5072 75.3368C44.9145 75.6757 45.4274 75.8615 45.9572 75.8622C46.7507 75.8622 47.3958 75.217 47.3958 74.4235C47.3961 74.2126 47.3499 74.0043 47.2605 73.8133C47.1711 73.6222 47.0407 73.4533 46.8786 73.3184L39.615 67.2665L41.3822 65.1463L48.8741 71.3889C49.1319 71.6053 49.4576 71.724 49.7941 71.7242H50.0951C50.8886 71.7242 51.5338 71.0791 51.5338 70.2856C51.534 70.0747 51.4878 69.8663 51.3984 69.6753C51.309 69.4843 51.1786 69.3153 51.0165 69.1804L43.7529 63.1285L45.5201 61.0084L53 67.2415C53.2662 67.4639 53.602 67.5859 53.9489 67.5863H54.1874C55.007 67.5863 55.6717 66.9217 55.6717 66.1032C55.6715 65.8952 55.6277 65.6896 55.5431 65.4996C55.4585 65.3096 55.3351 65.1394 55.1807 65.0001L43.5251 54.5118Z" fill="url(#paint2_linear_2912_38445)"/>
<path d="M54.6357 49.655L52.5378 49.6024L43.8699 47.1265C42.4509 46.7186 40.8876 46.8674 39.5711 47.5253L31.8771 51.3724C31.2412 51.691 30.8466 52.3281 30.8466 53.0372V53.31C30.8466 54.3364 31.6811 55.1722 32.7086 55.1722C33.0455 55.1722 33.3749 55.0814 33.6631 54.9089L38.8011 51.8277C39.6639 51.3084 40.6519 51.0341 41.659 51.0343C43.0317 51.0331 44.3559 51.5414 45.3754 52.4607L57.0274 62.9489C57.1102 63.0231 57.189 63.0993 57.2645 63.1793L80.5018 51.561V36.041L54.6357 49.655ZM41.4892 76.412C41.2771 76.8855 40.99 77.3241 40.6202 77.6938L39.5845 78.7296L40.6162 79.6395C40.8783 79.8717 41.2164 79.9999 41.5666 79.9998H41.8218C42.6152 79.9998 43.2604 79.3546 43.2604 78.5612C43.2606 78.3503 43.2144 78.1419 43.125 77.9509C43.0356 77.7599 42.9052 77.5909 42.7431 77.456L41.4892 76.412ZM37.5761 73.1033C37.1661 73.1042 36.7731 73.2669 36.4823 73.5558L34.0578 75.9805C33.7689 76.2712 33.6063 76.6641 33.6052 77.0739C33.6052 77.9267 34.2988 78.6203 35.1516 78.6203C35.5615 78.6194 35.9546 78.4567 36.2454 78.1677L38.6699 75.7431C38.9587 75.4524 39.1213 75.0596 39.1224 74.6498C39.1224 73.797 38.4288 73.1034 37.5761 73.1034V73.1033ZM30.8466 66.3738C30.8466 65.521 30.153 64.8274 29.3002 64.8274C28.8902 64.8284 28.4972 64.991 28.2064 65.28L25.7819 67.7046C25.493 67.9953 25.3304 68.3882 25.3293 68.7981C25.3293 69.6508 26.023 70.3445 26.8757 70.3445C27.2857 70.3435 27.6787 70.1809 27.9695 69.8919L30.394 67.4672C30.6829 67.1766 30.8455 66.7837 30.8466 66.3739V66.3738ZM34.9845 70.5117C34.9845 69.6589 34.2909 68.9653 33.4381 68.9653C33.0282 68.9663 32.6351 69.1289 32.3443 69.4179L29.9199 71.8426C29.6309 72.1333 29.4683 72.5262 29.4673 72.936C29.4673 73.7888 30.1609 74.4824 31.0136 74.4824C31.4236 74.4814 31.8167 74.3188 32.1074 74.0298L34.5319 71.6052C34.8208 71.3145 34.9834 70.9217 34.9845 70.5119V70.5117ZM26.7086 62.2358C26.7086 61.3831 26.015 60.6895 25.1623 60.6895C24.7523 60.6904 24.3593 60.8531 24.0685 61.142L21.644 63.5667C21.3551 63.8574 21.1925 64.2503 21.1914 64.6602C21.1914 65.5129 21.885 66.2065 22.7378 66.2065C23.1478 66.2056 23.5408 66.0429 23.8316 65.7539L26.2561 63.3293C26.5449 63.0386 26.7075 62.6458 26.7086 62.236V62.2358Z" fill="url(#paint3_linear_2912_38445)"/>
<defs>
<linearGradient id="paint0_linear_2912_38445" x1="0.500002" y1="159.738" x2="43.896" y2="165.252" gradientUnits="userSpaceOnUse">
<stop stop-color="#01BAEF"/>
</linearGradient>
<linearGradient id="paint1_linear_2912_38445" x1="9.04297" y1="148.037" x2="43.9477" y2="152.145" gradientUnits="userSpaceOnUse">
<stop stop-color="#01BAEF"/>
</linearGradient>
<linearGradient id="paint2_linear_2912_38445" x1="15.0703" y1="179.737" x2="56.6197" y2="184.632" gradientUnits="userSpaceOnUse">
<stop stop-color="#01BAEF"/>
</linearGradient>
<linearGradient id="paint3_linear_2912_38445" x1="21.1914" y1="155.237" x2="63.6992" y2="162.413" gradientUnits="userSpaceOnUse">
<stop stop-color="#01BAEF"/>
</linearGradient>
</defs>
</svg>
