<svg width="36" height="36" viewBox="0 0 36 36" fill="none" xmlns="http://www.w3.org/2000/svg">
<g id="Group">
<path id="Vector" fill-rule="evenodd" clip-rule="evenodd" d="M1.25581 35.9999H34.5282C34.8612 35.9999 35.1807 35.8676 35.4162 35.6321C35.6517 35.3966 35.784 35.0772 35.784 34.7441C35.784 34.411 35.6517 34.0916 35.4162 33.8561C35.1807 33.6206 34.8612 33.4883 34.5282 33.4883H1.25581C0.922751 33.4883 0.60333 33.6206 0.367819 33.8561C0.132309 34.0916 0 34.411 0 34.7441C0 35.0772 0.132309 35.3966 0.367819 35.6321C0.60333 35.8676 0.922751 35.9999 1.25581 35.9999Z" fill="url(#paint0_linear_3131_36465)"/>
<path id="Vector_2" fill-rule="evenodd" clip-rule="evenodd" d="M14.4357 36C14.1027 36 13.7832 35.8677 13.5477 35.6322C13.3122 35.3967 13.1799 35.0772 13.1799 34.7442V23.8605C13.1808 23.3056 13.4016 22.7738 13.7939 22.3815C14.1863 21.9891 14.7181 21.7683 15.2729 21.7674H20.2962C20.8508 21.7692 21.3821 21.9903 21.7742 22.3824C22.1664 22.7746 22.3875 23.3059 22.3892 23.8605V34.7442C22.3892 35.0772 22.2569 35.3967 22.0214 35.6322C21.7859 35.8677 21.4665 36 21.1334 36H26.1567C26.4897 36 26.8091 35.8677 27.0447 35.6322C27.2802 35.3967 27.4125 35.0772 27.4125 34.7442V2.93023C27.4125 2.15309 27.1038 1.40777 26.5542 0.858245C26.0047 0.30872 25.2594 0 24.4822 0H11.0869C10.3097 0 9.56443 0.30872 9.0149 0.858245C8.46538 1.40777 8.15666 2.15309 8.15666 2.93023V34.7442C8.15666 35.4374 8.71926 36 9.41247 36H14.4357ZM19.8776 24.2791V33.4884H15.6915V24.2791H19.8776ZM14.8543 18.8372H14.0171C13.7951 18.8372 13.5821 18.749 13.4251 18.592C13.2681 18.435 13.1799 18.222 13.1799 18V17.1628C13.1799 16.9407 13.2681 16.7278 13.4251 16.5708C13.5821 16.4138 13.7951 16.3256 14.0171 16.3256H14.8543C15.0764 16.3256 15.2893 16.4138 15.4463 16.5708C15.6033 16.7278 15.6915 16.9407 15.6915 17.1628V18C15.6915 18.222 15.6033 18.435 15.4463 18.592C15.2893 18.749 15.0764 18.8372 14.8543 18.8372ZM21.552 18.8372H20.7148C20.4928 18.8372 20.2798 18.749 20.1228 18.592C19.9658 18.435 19.8776 18.222 19.8776 18V17.1628C19.8776 16.9407 19.9658 16.7278 20.1228 16.5708C20.2798 16.4138 20.4928 16.3256 20.7148 16.3256H21.552C21.774 16.3256 21.987 16.4138 22.144 16.5708C22.301 16.7278 22.3892 16.9407 22.3892 17.1628V18C22.3892 18.222 22.301 18.435 22.144 18.592C21.987 18.749 21.774 18.8372 21.552 18.8372ZM14.8543 13.814H14.0171C13.7951 13.814 13.5821 13.7257 13.4251 13.5687C13.2681 13.4117 13.1799 13.1988 13.1799 12.9767V12.1395C13.1799 11.9175 13.2681 11.7045 13.4251 11.5475C13.5821 11.3905 13.7951 11.3023 14.0171 11.3023H14.8543C15.0764 11.3023 15.2893 11.3905 15.4463 11.5475C15.6033 11.7045 15.6915 11.9175 15.6915 12.1395V12.9767C15.6915 13.1988 15.6033 13.4117 15.4463 13.5687C15.2893 13.7257 15.0764 13.814 14.8543 13.814ZM21.552 13.814H20.7148C20.4928 13.814 20.2798 13.7257 20.1228 13.5687C19.9658 13.4117 19.8776 13.1988 19.8776 12.9767V12.1395C19.8776 11.9175 19.9658 11.7045 20.1228 11.5475C20.2798 11.3905 20.4928 11.3023 20.7148 11.3023H21.552C21.774 11.3023 21.987 11.3905 22.144 11.5475C22.301 11.7045 22.3892 11.9175 22.3892 12.1395V12.9767C22.3892 13.1988 22.301 13.4117 22.144 13.5687C21.987 13.7257 21.774 13.814 21.552 13.814ZM14.8543 8.7907H14.0171C13.7951 8.7907 13.5821 8.70249 13.4251 8.54548C13.2681 8.38848 13.1799 8.17553 13.1799 7.95349V7.11628C13.1799 6.89424 13.2681 6.68129 13.4251 6.52428C13.5821 6.36728 13.7951 6.27907 14.0171 6.27907H14.8543C15.0764 6.27907 15.2893 6.36728 15.4463 6.52428C15.6033 6.68129 15.6915 6.89424 15.6915 7.11628V7.95349C15.6915 8.17553 15.6033 8.38848 15.4463 8.54548C15.2893 8.70249 15.0764 8.7907 14.8543 8.7907ZM21.552 8.7907H20.7148C20.4928 8.7907 20.2798 8.70249 20.1228 8.54548C19.9658 8.38848 19.8776 8.17553 19.8776 7.95349V7.11628C19.8776 6.89424 19.9658 6.68129 20.1228 6.52428C20.2798 6.36728 20.4928 6.27907 20.7148 6.27907H21.552C21.774 6.27907 21.987 6.36728 22.144 6.52428C22.301 6.68129 22.3892 6.89424 22.3892 7.11628V7.95349C22.3892 8.17553 22.301 8.38848 22.144 8.54548C21.987 8.70249 21.774 8.7907 21.552 8.7907ZM6.48224 6.69767H4.38922C3.61207 6.69767 2.86675 7.00639 2.31723 7.55592C1.7677 8.10544 1.45898 8.85076 1.45898 9.62791V34.7442C1.45898 35.4374 2.02159 36 2.7148 36H6.76354C6.5775 35.6075 6.4814 35.1785 6.48224 34.7442V6.69767ZM29.0869 6.69767V34.7442C29.0869 35.1929 28.9864 35.6199 28.8056 36H32.8543C33.1874 36 33.5068 35.8677 33.7423 35.6322C33.9778 35.3967 34.1101 35.0772 34.1101 34.7442V9.62791C34.1101 8.85076 33.8014 8.10544 33.2519 7.55592C32.7024 7.00639 31.9571 6.69767 31.1799 6.69767H29.0869Z" fill="url(#paint1_linear_3131_36465)"/>
</g>
<defs>
<linearGradient id="paint0_linear_3131_36465" x1="8.99877e-07" y1="40.2987" x2="6.31348" y2="51.5536" gradientUnits="userSpaceOnUse">
<stop stop-color="#01BAEF"/>
</linearGradient>
<linearGradient id="paint1_linear_3131_36465" x1="1.45899" y1="97.6154" x2="25.221" y2="100.312" gradientUnits="userSpaceOnUse">
<stop stop-color="#01BAEF"/>
</linearGradient>
</defs>
</svg>
