<svg width="37" height="36" viewBox="0 0 37 36" fill="none" xmlns="http://www.w3.org/2000/svg">
<g id="Group">
<path id="Vector" d="M4.6832 36H23.2832C19.9832 34.2 17.7332 30.75 17.7332 26.7C17.7332 20.85 22.5332 16.05 28.3832 16.05H28.5332V3.9C28.5332 1.8 26.7332 0 24.6332 0H4.6832C2.5832 0 0.783203 1.8 0.783203 3.9V32.1C0.783203 34.2 2.4332 36 4.6832 36ZM8.1332 6H21.0332C21.9332 6 22.5332 6.75 22.5332 7.5C22.5332 8.4 21.9332 9 21.0332 9H8.1332C7.2332 9 6.6332 8.4 6.6332 7.5C6.6332 6.75 7.3832 6 8.1332 6ZM8.1332 13.05H16.5332C17.4332 13.05 18.0332 13.8 18.0332 14.55C18.0332 15.45 17.4332 16.05 16.5332 16.05H8.1332C7.2332 16.05 6.6332 15.45 6.6332 14.55C6.6332 13.65 7.3832 13.05 8.1332 13.05Z" fill="#828282"/>
<path id="Vector_2" d="M28.3824 19.2002C24.1824 19.2002 20.7324 22.6502 20.7324 26.8502C20.7324 31.0502 24.1824 34.5002 28.3824 34.5002C32.5824 34.5002 36.0324 31.0502 36.0324 26.8502C36.0324 22.6502 32.5824 19.2002 28.3824 19.2002ZM32.1324 26.1002L28.3824 29.7002C28.0824 30.0002 27.7824 30.1502 27.3324 30.1502C26.8824 30.1502 26.5824 30.0002 26.2824 29.7002L24.4824 27.7502C23.8824 27.1502 23.8824 26.2502 24.6324 25.6502C25.2324 25.0502 26.1324 25.0502 26.7324 25.6502L27.4824 26.5502L30.1824 24.0002C30.7824 23.4002 31.6824 23.4002 32.2824 24.0002C32.7324 24.4502 32.7324 25.5002 32.1324 26.1002Z" fill="#828282"/>
</g>
</svg>
