<svg width="62" height="80" viewBox="0 0 62 80" fill="none" xmlns="http://www.w3.org/2000/svg">
<g id="Group">
<path id="Vector" d="M23.1257 7.86528C23.1273 6.30837 23.5905 4.7869 24.4567 3.49318C25.3229 2.19947 26.5532 1.19159 27.9921 0.596938C29.4309 0.00228837 31.0138 -0.152436 32.5406 0.152323C34.0674 0.457081 35.4696 1.20764 36.5699 2.30913C37.6702 3.41062 38.4192 4.81359 38.7224 6.34071C39.0255 7.86783 38.8691 9.45053 38.2729 10.8888C37.6767 12.327 36.6675 13.5562 35.3729 14.421C34.0782 15.2858 32.5563 15.7474 30.9994 15.7474C28.9103 15.7452 26.9077 14.9137 25.4313 13.4358C23.9549 11.9579 23.1257 9.95428 23.1257 7.86528Z" fill="#4F4F4F"/>
<path id="Vector_2" d="M61.0625 65.372C61.0625 74.9417 45.9383 79.9994 30.9993 79.9994C16.0603 79.9994 0.936115 74.9409 0.936115 65.372C0.936115 58.7042 8.24559 54.2528 17.7134 52.1543L18.6902 59.4638C12.0645 61.0562 8.2877 63.6785 8.2877 65.3644C8.2877 67.8933 16.9126 72.6402 30.9993 72.6402C45.0861 72.6402 53.7109 67.9438 53.7109 65.3728C53.7109 63.6869 49.9341 61.0478 43.2991 59.4714L44.2852 52.1787C53.7614 54.2537 61.0625 58.7059 61.0625 65.3737V65.372Z" fill="#4F4F4F"/>
<path id="Vector_3" d="M43.6445 27.4619L43.4508 37.376C43.439 38.0839 43.242 38.7763 42.8794 39.3844C42.5168 39.9925 42.0014 40.4951 41.3843 40.8421L39.0407 42.1659L36.2163 63.2918C36.1313 64.0318 35.7765 64.7145 35.2196 65.2092C34.6628 65.7039 33.9431 65.9759 33.1982 65.9731H28.831C28.0867 65.9741 27.368 65.7014 26.8115 65.2071C26.2551 64.7127 25.8997 64.0311 25.8129 63.2918L22.9893 42.1659L20.6449 40.8421C20.0283 40.4949 19.5132 39.9924 19.151 39.3845C18.7888 38.7766 18.5919 38.0844 18.5801 37.3769L18.3527 27.4627C18.2592 21.8442 22.7384 17.2143 28.3569 17.1208C28.4195 17.1197 28.4821 17.1191 28.5447 17.1192H33.4508C39.0711 17.1091 43.6344 21.6564 43.6445 27.2758L43.6437 27.4627L43.6445 27.4619Z" fill="#4F4F4F"/>
</g>
</svg>
