<svg width="81" height="80" viewBox="0 0 81 80" fill="none" xmlns="http://www.w3.org/2000/svg">
<g id="Group">
<path id="Vector" d="M14.9841 30.7934L15.6724 31.1914V35.5597L12.536 36.3436L19.8103 40.5872L19.7578 43.1378L19.646 43.5284L23.9483 42.5707V41.549C23.9483 39.6948 24.6972 37.9971 25.9236 36.7422L21.1909 35.5597L21.1857 31.1948L21.8753 30.796C24.0048 29.5629 25.3276 27.2759 25.3276 24.8276V22.4166C25.3276 18.5352 22.3293 15.2869 18.6431 15.1764C16.7755 15.1038 14.9788 15.8095 13.6284 17.1188C12.2781 18.4288 11.5345 20.1879 11.5345 22.069V24.8276C11.5345 27.2759 12.8559 29.5629 14.9841 30.7934ZM25.2629 15.3907C28.5043 10.1724 34.2655 6.89655 40.5 6.89655C46.69 6.89655 52.435 10.1421 55.6859 15.3091C55.741 15.254 55.7897 15.1933 55.8462 15.1381C56.7055 14.3036 57.6928 13.6605 58.7578 13.2024L60.3222 9.53931L55.9209 5.13672L52.0422 7.66086L51.3002 7.20569C49.4405 6.06603 47.4309 5.23155 45.3276 4.72862L44.4776 4.52379L43.5193 0H37.4793L36.5224 4.52379L35.6738 4.72655C33.5703 5.23034 31.5607 6.06483 29.7014 7.20431L28.9591 7.65948L25.0803 5.13534L20.6738 9.54207L22.2214 13.2314C23.3636 13.746 24.3955 14.4828 25.2629 15.3907ZM0.5 31.7241V56.9362L6.42 58.9103L11.4253 38.8895L0.5 31.7241Z" fill="#4F4F4F"/>
<path id="Vector_2" d="M57.0514 32.7408C54.4807 30.9453 52.9135 27.984 52.9135 24.8267V22.0681C52.9135 20.5481 53.2704 19.09 53.9271 17.7733C51.3173 12.8224 46.1261 9.6543 40.4997 9.6543C34.8195 9.6543 29.6059 12.8655 27.0157 17.8843C27.6952 19.2515 28.0859 20.7926 28.0859 22.4157V24.8267C28.0859 27.9841 26.5173 30.9481 23.9466 32.7422V33.4029L29.4652 34.7843L34.9825 33.4029V32.7408C32.4118 30.9453 30.8445 27.984 30.8445 24.8267V22.0681C30.8445 19.4334 31.8859 16.9733 33.7769 15.1386C35.6666 13.304 38.1559 12.3415 40.7959 12.4169C45.9564 12.5733 50.1549 17.0574 50.1549 22.4157V24.8267C50.1549 27.9841 48.5862 30.9481 46.0156 32.7422V33.4029L51.5342 34.7843L57.0514 33.4029V32.7408ZM17.0514 42.1705L13.9056 40.336L9.04297 59.7843L11.7578 60.6888H11.8737L17.0514 42.5645V42.1705Z" fill="#4F4F4F"/>
<path id="Vector_3" d="M29.84 37.5342C28.9444 37.7577 28.1493 38.2745 27.5814 39.0022C27.0135 39.7299 26.7054 40.6267 26.7062 41.5497V41.9578L27.4969 41.7827C30.4096 41.1375 33.4896 41.2735 36.3351 42.1854L42.5789 44.1809C43.27 44.2071 43.9582 44.2833 44.6251 44.474L53.1062 46.8971H53.9514L54.2922 46.7178V41.5496C54.2922 39.6478 53.0026 37.9963 51.1584 37.5342L43.2591 35.5602L43.2538 31.1954L43.9434 30.7966C46.0731 29.5635 47.3958 27.2765 47.3958 24.8282V22.4171C47.3958 18.5358 44.3976 15.2875 40.7113 15.177C38.85 15.1044 37.047 15.8101 35.6967 17.1194C34.3462 18.4294 33.6027 20.1885 33.6027 22.0696V24.8282C33.6027 27.2765 34.9241 29.5635 37.0524 30.794L37.7407 31.192V35.5602L29.84 37.5342ZM55.6717 22.0696V24.8282C55.6717 27.2765 56.9931 29.5635 59.1213 30.794L59.8096 31.192V35.5602L55.0757 36.743C56.3007 37.9977 57.051 39.6942 57.051 41.5496V45.2652L72.2195 37.2816L65.3281 35.5602L65.3229 31.1954L66.0126 30.7966C68.142 29.5635 69.4648 27.2765 69.4648 24.8282V22.4171C69.4648 18.5358 66.4665 15.2875 62.7803 15.177C60.9088 15.1044 59.1172 15.8101 57.7657 17.1194C56.4151 18.4294 55.6717 20.1885 55.6717 22.0696ZM43.5251 54.5123C42.6343 53.7109 41.2496 53.5742 40.2177 54.1937L35.081 57.2737C34.3639 57.7046 33.543 57.9321 32.7063 57.9316C30.1584 57.9316 28.0855 55.8587 28.0855 53.3109V53.038C28.0855 51.2777 29.0634 49.6942 30.64 48.9054L37.5286 45.4613L35.4965 44.8113C33.1131 44.0489 30.5377 43.9304 28.0962 44.4766L18.7846 46.547L15.0703 59.5466L19.3079 62.089C19.4291 61.9261 19.5489 61.7618 19.6938 61.617L22.1184 59.1925C22.917 58.3909 24.0263 57.9316 25.1598 57.9316C27.4813 57.9316 29.3684 59.7823 29.4494 62.0851C31.6994 62.1644 33.5077 63.973 33.5874 66.223C35.8374 66.3023 37.6457 68.1109 37.7253 70.3609C39.357 70.4189 40.7505 71.3852 41.4288 72.7713L44.5072 75.3373C44.9145 75.6762 45.4274 75.862 45.9572 75.8627C46.7507 75.8627 47.3958 75.2175 47.3958 74.424C47.3961 74.2131 47.3499 74.0048 47.2605 73.8137C47.1711 73.6227 47.0407 73.4538 46.8786 73.3189L39.615 67.267L41.3822 65.1468L48.8741 71.3894C49.1319 71.6058 49.4576 71.7245 49.7941 71.7247H50.0951C50.8886 71.7247 51.5338 71.0796 51.5338 70.2861C51.534 70.0752 51.4878 69.8668 51.3984 69.6758C51.309 69.4848 51.1786 69.3158 51.0165 69.1809L43.7529 63.129L45.5201 61.0089L53 67.242C53.2662 67.4644 53.602 67.5864 53.9489 67.5868H54.1874C55.007 67.5868 55.6717 66.9221 55.6717 66.1037C55.6715 65.8957 55.6277 65.6901 55.5431 65.5001C55.4585 65.3101 55.3351 65.1399 55.1807 65.0006L43.5251 54.5123Z" fill="#4F4F4F"/>
<path id="Vector_4" d="M54.6338 49.655L52.5358 49.6024L43.8679 47.1265C42.4489 46.7186 40.8857 46.8674 39.5691 47.5253L31.8751 51.3724C31.2393 51.691 30.8446 52.3281 30.8446 53.0372V53.31C30.8446 54.3364 31.6791 55.1722 32.7067 55.1722C33.0436 55.1722 33.3729 55.0814 33.6612 54.9089L38.7991 51.8277C39.6619 51.3084 40.65 51.0341 41.657 51.0343C43.0297 51.0331 44.354 51.5414 45.3734 52.4607L57.0255 62.9489C57.1082 63.0231 57.187 63.0993 57.2626 63.1793L80.4998 51.561V36.041L54.6338 49.655ZM41.4872 76.412C41.2751 76.8855 40.9881 77.3241 40.6182 77.6938L39.5826 78.7296L40.6143 79.6395C40.8763 79.8717 41.2144 79.9999 41.5646 79.9998H41.8198C42.6132 79.9998 43.2584 79.3546 43.2584 78.5612C43.2587 78.3503 43.2125 78.1419 43.1231 77.9509C43.0337 77.7599 42.9033 77.5909 42.7412 77.456L41.4872 76.412ZM37.5741 73.1033C37.1641 73.1042 36.7711 73.2669 36.4803 73.5558L34.0558 75.9805C33.7669 76.2712 33.6043 76.6641 33.6032 77.0739C33.6032 77.9267 34.2969 78.6203 35.1496 78.6203C35.5596 78.6194 35.9526 78.4567 36.2434 78.1677L38.6679 75.7431C38.9568 75.4524 39.1194 75.0596 39.1205 74.6498C39.1205 73.797 38.4269 73.1034 37.5741 73.1034V73.1033ZM30.8446 66.3738C30.8446 65.521 30.151 64.8274 29.2982 64.8274C28.8883 64.8284 28.4952 64.991 28.2045 65.28L25.78 67.7046C25.4911 67.9953 25.3284 68.3882 25.3274 68.7981C25.3274 69.6508 26.021 70.3445 26.8738 70.3445C27.2837 70.3435 27.6768 70.1809 27.9676 69.8919L30.392 67.4672C30.6809 67.1766 30.8435 66.7837 30.8446 66.3739V66.3738ZM34.9826 70.5117C34.9826 69.6589 34.2889 68.9653 33.4362 68.9653C33.0262 68.9663 32.6332 69.1289 32.3424 69.4179L29.9179 71.8426C29.629 72.1333 29.4664 72.5262 29.4653 72.936C29.4653 73.7888 30.1589 74.4824 31.0117 74.4824C31.4217 74.4814 31.8147 74.3188 32.1055 74.0298L34.53 71.6052C34.8188 71.3145 34.9815 70.9217 34.9826 70.5119V70.5117ZM26.7067 62.2358C26.7067 61.3831 26.0131 60.6895 25.1603 60.6895C24.7504 60.6904 24.3573 60.8531 24.0665 61.142L21.642 63.5667C21.3531 63.8574 21.1905 64.2503 21.1895 64.6602C21.1895 65.5129 21.8831 66.2065 22.7358 66.2065C23.1458 66.2056 23.5388 66.0429 23.8296 65.7539L26.2541 63.3293C26.543 63.0386 26.7056 62.6458 26.7067 62.236V62.2358Z" fill="#4F4F4F"/>
</g>
</svg>
