<svg width="74" height="80" viewBox="0 0 74 80" fill="none" xmlns="http://www.w3.org/2000/svg">
<g id="Group">
<path id="Vector" d="M73.7405 73.0484C73.6894 72.701 73.6076 72.3741 73.4953 72.0574C72.6882 68.9517 70.839 63.2916 70.0014 60.7579C69.9094 60.3186 69.7663 59.8895 69.5823 59.491V59.4808C69.0715 58.3774 68.2338 57.4579 67.2019 56.8449C67.1406 56.8041 67.0078 56.7325 66.8341 56.6406C66.7625 56.6099 66.6911 56.5691 66.6194 56.5384C64.5865 55.5781 58.344 53.0851 58.344 53.0851C55.2177 51.7367 51.9894 50.5821 48.6893 49.4072C48.0969 51.8592 42.5083 68.1342 41.6196 70.392L40.9146 55.2715C41.1497 54.9139 41.3131 54.5052 41.4971 54.117L43.8263 49.5092C42.1815 50.8783 39.7194 51.7467 36.971 51.7467C34.2841 51.7467 31.8731 50.9191 30.2281 49.6012L32.5166 54.1169C32.7005 54.5051 32.864 54.9138 33.0989 55.2714L32.394 70.3919C31.4949 68.134 25.8963 51.8488 25.3139 49.3969C22.014 50.5718 18.7855 51.7262 15.6593 53.0748C15.6593 53.0748 9.41696 55.5779 7.38386 56.528C7.31235 56.5587 7.24083 56.5894 7.16932 56.6302C6.99564 56.7119 6.86282 56.7834 6.80152 56.8345C5.76965 57.4578 4.93189 58.3773 4.42106 59.4806V59.4908C4.23716 59.8893 4.09413 60.3185 4.00218 60.7577C3.16443 63.2914 1.31523 68.9411 0.508119 72.0572C0.395737 72.374 0.314005 72.7111 0.262922 73.0482C0.211839 73.3445 0.191406 73.6612 0.191406 73.9677C0.191406 77.2983 2.88858 79.9955 6.21918 79.9955H11.9711C20.2056 79.9955 28.4402 80.0057 36.6747 79.9955H67.7842C71.1148 79.9955 73.8119 77.2983 73.8119 73.9677C73.8119 73.6614 73.7814 73.3447 73.7405 73.0484ZM52.7353 21.4037C52.7353 20.3412 52.9396 16.4793 52.9396 15.5905C52.9498 6.97791 45.9616 0 37.3489 0H36.6338C28.0212 0 21.0331 6.98813 21.0331 15.6007C21.0331 16.4895 21.2374 20.3412 21.2374 21.4139C20.8594 21.4343 17.3653 20.5966 17.7434 24.7752C18.5402 33.6431 21.9219 31.9268 22.0241 31.9268C23.6894 37.27 26.2742 40.6823 28.8079 42.8585C32.7617 46.2504 36.5929 46.6182 36.6643 46.6182C36.7768 46.6182 36.879 46.6285 36.9913 46.6285C37.0934 46.6285 37.2059 46.6285 37.3183 46.6182C37.3796 46.6182 41.1904 46.2504 45.1237 42.8994C47.6675 40.7335 50.2727 37.311 51.9483 31.9269C52.0505 31.9269 55.4321 33.6432 56.229 24.7753C56.6071 20.5864 53.1132 21.4241 52.7353 21.4037Z" fill="#4F4F4F"/>
</g>
</svg>
