<svg width="87" height="80" viewBox="0 0 87 80" fill="none" xmlns="http://www.w3.org/2000/svg">
<g id="Group">
<path id="Vector" d="M49.4712 52.6106L46.3669 49.5063V80.0006H60.6527V49.5049L57.5484 52.6106C56.4769 53.681 55.0243 54.2822 53.5098 54.2822C51.9953 54.2822 50.5427 53.681 49.4712 52.6106ZM40.6527 44.3849C40.274 44.3846 39.9107 44.5346 39.6427 44.802L29.2241 54.7149V80.0006H43.5098V46.6491L41.6627 44.802C41.3946 44.5346 41.0313 44.3846 40.6527 44.3849ZM3.50977 79.4292C3.50977 79.7435 3.76691 80.0006 4.08119 80.0006H26.3669V57.4292L3.68691 79.0163C3.63102 79.0696 3.58651 79.1337 3.55606 79.2046C3.52562 79.2756 3.50987 79.352 3.50977 79.4292ZM63.5098 46.6449V80.0006H76.367C76.7459 80.0006 77.1092 79.8501 77.3771 79.5822C77.645 79.3143 77.7955 78.9509 77.7955 78.572V32.3506L63.5098 46.6449ZM24.9384 22.8577C24.9347 21.9745 24.6582 21.1139 24.1468 20.3938C23.6354 19.6737 22.9139 19.1292 22.0812 18.8348V26.8806C22.9139 26.5862 23.6354 26.0417 24.1468 25.3216C24.6582 24.6015 24.9347 23.7409 24.9384 22.8577ZM19.2241 7.40625C18.389 7.69717 17.6652 8.24076 17.153 8.9616C16.6408 9.68245 16.3656 10.5448 16.3656 11.4291C16.3656 12.3134 16.6408 13.1758 17.153 13.8966C17.6652 14.6175 18.389 15.161 19.2241 15.452V7.40625Z" fill="#4F4F4F"/>
<path id="Vector_2" d="M20.6523 34.2857C30.1195 34.2857 37.7952 26.61 37.7952 17.1429C37.7952 7.67572 30.1195 0 20.6523 0C11.1852 0 3.50947 7.67572 3.50947 17.1429C3.51947 26.6057 11.1895 34.2757 20.6523 34.2857ZM13.5095 11.4286C13.5116 9.78257 14.081 8.18761 15.1219 6.91251C16.1628 5.63741 17.6115 4.76014 19.2238 4.42858V4.28572C19.2238 3.90684 19.3743 3.54347 19.6422 3.27556C19.9101 3.00766 20.2735 2.85715 20.6523 2.85715C21.0312 2.85715 21.3946 3.00766 21.6625 3.27556C21.9304 3.54347 22.0809 3.90684 22.0809 4.28572V4.42858C23.6932 4.76014 25.1418 5.63741 26.1827 6.91251C27.2236 8.18761 27.7931 9.78257 27.7952 11.4286C27.7952 11.8075 27.6447 12.1708 27.3768 12.4387C27.1089 12.7066 26.7455 12.8572 26.3666 12.8572C25.9877 12.8572 25.6244 12.7066 25.3565 12.4387C25.0886 12.1708 24.9381 11.8075 24.9381 11.4286C24.9344 10.5454 24.6579 9.68482 24.1465 8.96472C23.6351 8.24462 22.9136 7.70013 22.0809 7.40572V15.8572C23.6956 16.185 25.1473 17.0611 26.19 18.3368C27.2327 19.6125 27.8024 21.2095 27.8024 22.8572C27.8024 24.5048 27.2327 26.1018 26.19 27.3775C25.1473 28.6533 23.6956 29.5293 22.0809 29.8572V30C22.0809 30.3789 21.9304 30.7423 21.6625 31.0102C21.3946 31.2781 21.0312 31.4286 20.6523 31.4286C20.2735 31.4286 19.9101 31.2781 19.6422 31.0102C19.3743 30.7423 19.2238 30.3789 19.2238 30V29.8572C17.6115 29.5256 16.1628 28.6483 15.1219 27.3732C14.081 26.0981 13.5116 24.5032 13.5095 22.8572C13.5095 22.4783 13.66 22.1149 13.9279 21.847C14.1958 21.5791 14.5592 21.4286 14.938 21.4286C15.3169 21.4286 15.6803 21.5791 15.9482 21.847C16.2161 22.1149 16.3666 22.4783 16.3666 22.8572C16.3703 23.7404 16.6467 24.6009 17.1582 25.321C17.6696 26.0411 18.391 26.5856 19.2238 26.88V18.4286C17.6115 18.097 16.1628 17.2198 15.1219 15.9447C14.081 14.6696 13.5116 13.0746 13.5095 11.4286ZM85.4838 11.5386C85.311 11.4662 85.1255 11.4288 84.9381 11.4286H70.6524C70.2735 11.4286 69.9101 11.5791 69.6422 11.847C69.3743 12.1149 69.2238 12.4783 69.2238 12.8572C69.2238 13.236 69.3743 13.5994 69.6422 13.8673C69.9101 14.1352 70.2735 14.2857 70.6524 14.2857H81.4895L54.5195 41.2558C54.2516 41.5236 53.8883 41.674 53.5095 41.674C53.1307 41.674 52.7674 41.5236 52.4995 41.2558L43.6824 32.4386C42.8787 31.6352 41.7888 31.1838 40.6524 31.1838C39.5159 31.1838 38.426 31.6352 37.6224 32.4386L1.07089 68.9901C0.934449 69.1218 0.825617 69.2795 0.750747 69.4538C0.675877 69.6281 0.636468 69.8155 0.63482 70.0052C0.633171 70.1949 0.669317 70.383 0.741146 70.5586C0.812976 70.7341 0.919052 70.8936 1.05318 71.0278C1.18732 71.1619 1.34682 71.268 1.52239 71.3398C1.69795 71.4116 1.88607 71.4478 2.07575 71.4461C2.26544 71.4445 2.45289 71.4051 2.62719 71.3302C2.80148 71.2553 2.95911 71.1465 3.09089 71.0101L39.6424 34.4586C39.9103 34.1908 40.2735 34.0403 40.6524 34.0403C41.0312 34.0403 41.3945 34.1908 41.6624 34.4586L50.4795 43.2758C51.2832 44.0792 52.3731 44.5306 53.5095 44.5306C54.6459 44.5306 55.7358 44.0792 56.5395 43.2758L83.5095 16.3057V27.1429C83.5095 27.5218 83.66 27.8851 83.9279 28.153C84.1959 28.4209 84.5592 28.5715 84.9381 28.5715C85.317 28.5715 85.6804 28.4209 85.9483 28.153C86.2162 27.8851 86.3667 27.5218 86.3667 27.1429V12.8572C86.3663 12.5747 86.2823 12.2987 86.1252 12.064C85.968 11.8293 85.7448 11.6465 85.4838 11.5386Z" fill="#4F4F4F"/>
</g>
</svg>
