<svg width="50" height="40" viewBox="0 0 50 40" fill="none" xmlns="http://www.w3.org/2000/svg">
<g id="Group">
<path id="Vector" d="M29.5716 26.6147C29.3455 26.6151 29.1222 26.5656 28.9174 26.4697C28.7127 26.3739 28.5316 26.2341 28.3871 26.0603L26.5374 23.8406V38.4592C26.5374 38.8679 26.3751 39.2598 26.0862 39.5487C25.7972 39.8377 25.4053 40 24.9967 40C24.588 40 24.1961 39.8377 23.9072 39.5487C23.6182 39.2598 23.4559 38.8679 23.4559 38.4592V23.8406L21.6062 26.0603C21.4772 26.2171 21.3183 26.347 21.1389 26.4422C20.9595 26.5375 20.763 26.5964 20.5607 26.6154C20.3585 26.6344 20.1544 26.6133 19.9604 26.5532C19.7663 26.493 19.5861 26.3951 19.43 26.2651C19.2739 26.135 19.1451 25.9754 19.051 25.7954C18.9569 25.6153 18.8993 25.4185 18.8815 25.2161C18.8637 25.0137 18.8862 24.8098 18.9475 24.6161C19.0089 24.4225 19.1079 24.2428 19.2389 24.0876L23.8131 18.5986C23.9577 18.4251 24.1387 18.2855 24.3432 18.1897C24.5478 18.0939 24.7709 18.0442 24.9968 18.0442C25.2227 18.0442 25.4458 18.0939 25.6503 18.1897C25.8549 18.2855 26.0359 18.4251 26.1805 18.5986L30.7546 24.0876C30.942 24.3125 31.0615 24.5862 31.099 24.8765C31.1365 25.1669 31.0905 25.462 30.9664 25.7271C30.8423 25.9923 30.6452 26.2166 30.3982 26.3738C30.1512 26.531 29.8645 26.6146 29.5718 26.6147H29.5716ZM47.1851 16.6552C45.8621 14.9124 44.1004 13.5518 42.0798 12.7122C42.0092 10.0075 41.0862 7.39421 39.4425 5.24515C37.5394 2.76732 34.7245 1.02385 31.516 0.335803C23.689 -1.34218 15.2646 3.43321 12.7368 10.9811L12.4634 11.7979C9.23818 11.816 6.15175 13.1122 3.88064 15.4022C1.60954 17.6922 0.339059 20.7893 0.3477 24.0145C0.356341 27.2397 1.6434 30.33 3.92674 32.6078C6.21009 34.8856 9.30342 36.1652 12.5286 36.166H19.5802C19.9889 36.166 20.3808 36.0037 20.6697 35.7147C20.9587 35.4258 21.121 35.0339 21.121 34.6252C21.121 34.2166 20.9587 33.8247 20.6697 33.5358C20.3808 33.2468 19.9889 33.0845 19.5802 33.0845H12.5286C10.1145 33.0845 7.7992 32.1255 6.09213 30.4184C4.38505 28.7113 3.42603 26.396 3.42603 23.9819C3.42603 21.5677 4.38505 19.2524 6.09213 17.5453C7.7992 15.8383 10.1145 14.8792 12.5286 14.8792H13.5723C13.8953 14.8792 14.2102 14.7777 14.4724 14.589C14.7345 14.4003 14.9308 14.134 15.0333 13.8277L15.6593 11.9595C17.7045 5.85182 24.5283 1.98904 30.8705 3.34895C35.9543 4.43885 39.2913 8.69347 38.9853 13.6956C38.9641 14.0419 39.0603 14.3851 39.2584 14.6699C39.4565 14.9547 39.7449 15.1642 40.0769 15.2647C43.8981 16.4193 46.5673 20.004 46.5673 23.9819C46.5646 26.3952 45.6047 28.7089 43.8982 30.4154C42.1917 32.1219 39.878 33.0818 37.4647 33.0845H30.4131C30.0045 33.0845 29.6126 33.2468 29.3236 33.5358C29.0347 33.8247 28.8724 34.2166 28.8724 34.6252C28.8724 35.0339 29.0347 35.4258 29.3236 35.7147C29.6126 36.0037 30.0045 36.166 30.4131 36.166H37.4647C40.695 36.1623 43.792 34.8775 46.0761 32.5933C48.3603 30.3091 49.6452 27.2122 49.6488 23.9819C49.6542 21.3354 48.7884 18.7607 47.1851 16.6552Z" fill="#E0E0E0"/>
</g>
</svg>
