<svg width="81" height="80" viewBox="0 0 81 80" fill="none" xmlns="http://www.w3.org/2000/svg">
<path id="Vector" d="M40.5 0C18.407 0 0.5 17.91 0.5 40C0.5 62.09 18.407 80 40.5 80C62.59 80 80.5 62.09 80.5 40C80.5 17.91 62.59 0 40.5 0ZM20.5 46.667C16.815 46.667 13.833 43.682 13.833 40C13.833 36.3211 16.815 33.333 20.5 33.333C24.182 33.333 27.167 36.3211 27.167 40C27.167 43.682 24.182 46.667 20.5 46.667ZM40.5 46.667C36.815 46.667 33.833 43.682 33.833 40C33.833 36.3211 36.815 33.333 40.5 33.333C44.182 33.333 47.167 36.3211 47.167 40C47.167 43.682 44.182 46.667 40.5 46.667ZM60.5 46.667C56.815 46.667 53.833 43.682 53.833 40C53.833 36.3211 56.815 33.333 60.5 33.333C64.182 33.333 67.167 36.3211 67.167 40C67.167 43.682 64.182 46.667 60.5 46.667Z" fill="#4F4F4F"/>
</svg>
